# xmcd
#
# Track frame offsets: 
#        150
#        10275
#        22360
#        31425
#        44700
#        56250
#        68850
#        78825
#        88425
#        98925
#        113635
#        123975
#        136950
#        148585
#        159010
#        167775
#
# Disc length: 2309 seconds
#
# Revision: 9
# Processed by: cddbd v1.5.2PL0 Copyright (c) Steve Scherf et al.
# Submitted via: ExactAudioCopy v0.99pb5
#
DISCID=d9090310
DTITLE=Various Artist - Country Pure [CD 2 of 2)
DYEAR=0
DGENRE=Country
TTITLE0=Nashville Music Company - Deep In The Heart Of Texas
TTITLE1=Jill Morris and Tom Astor - Jackson
TTITLE2=Frankie Laine - Rawhide
TTITLE3=Patti Page - Tennessee Waltz
TTITLE4=Henson Gargill - Take Me Home Country Road
TTITLE5=Greg Barrett - On Top Of Old Smokey
TTITLE6=Faron Young - Hello Walls
TTITLE7=Ned Miller - From A Jack To A King
TTITLE8=Frankie Laine - Sixteen Tons
TTITLE9=Jennaie C. Riley - Harper Valley P.T.A.
TTITLE10=Jimmy Dean - Gotta Travel On
TTITLE11=Lynn Anderson - Rose Garden
TTITLE12=Frankie Laine - Mule Train
TTITLE13=Dolly Parton - Honky Tonk Angels
TTITLE14=Johnny Cash - Two Timin Woman
TTITLE15=End - Orange Blossom Special
EXTD=
EXTT0=
EXTT1=
EXTT2=
EXTT3=
EXTT4=
EXTT5=
EXTT6=
EXTT7=
EXTT8=
EXTT9=
EXTT10=
EXTT11=
EXTT12=
EXTT13=
EXTT14=
EXTT15=
PLAYORDER=
